<svg width="256" height="256" viewBox="0 0 256 256" fill="none" xmlns="http://www.w3.org/2000/svg">
<rect width="256" height="256" fill="url(#paint0_radial_23_73)"/>
<path fill-rule="evenodd" clip-rule="evenodd" d="M78.0614 162.235C84.1005 165.894 91.1853 168 98.7621 168H158.76C180.852 168 198.761 150.091 198.761 128C198.761 105.904 180.852 88 158.76 88H98.7621C76.6698 88 58.7609 105.909 58.7609 128C58.7609 135.692 60.931 142.875 64.6923 148.973C61.3257 150.582 59 154.02 59 158C59 163.523 63.4772 168 69 168C73.0089 168 76.4669 165.641 78.0614 162.235ZM54 178C56.7614 178 59 175.761 59 173C59 170.239 56.7614 168 54 168C51.2386 168 49 170.239 49 173C49 175.761 51.2386 178 54 178Z" fill="white"/>
<path fill-rule="evenodd" clip-rule="evenodd" d="M78.0614 162.235C84.1005 165.894 91.1853 168 98.7621 168H158.76C180.852 168 198.761 150.091 198.761 128C198.761 105.904 180.852 88 158.76 88H98.7621C76.6698 88 58.7609 105.909 58.7609 128C58.7609 135.692 60.931 142.875 64.6923 148.973C61.3257 150.582 59 154.02 59 158C59 163.523 63.4772 168 69 168C73.0089 168 76.4669 165.641 78.0614 162.235ZM54 178C56.7614 178 59 175.761 59 173C59 170.239 56.7614 168 54 168C51.2386 168 49 170.239 49 173C49 175.761 51.2386 178 54 178Z" fill="url(#paint1_radial_23_73)" fill-opacity="0.24"/>
<path fill-rule="evenodd" clip-rule="evenodd" d="M136.064 108.526C135.221 107.143 134.037 106.001 132.624 105.208C131.212 104.415 129.62 103.999 128 104C124.585 104 121.592 105.812 119.936 108.528C118.361 108.146 116.715 108.175 115.155 108.612C113.595 109.05 112.173 109.882 111.028 111.027C109.882 112.173 109.05 113.594 108.613 115.154C108.175 116.714 108.146 118.36 108.529 119.935C107.145 120.777 106.002 121.962 105.209 123.374C104.416 124.786 104 126.378 104 127.998C104 131.413 105.812 134.403 108.526 136.061C108.144 137.636 108.173 139.282 108.61 140.842C109.048 142.402 109.88 143.823 111.025 144.969C112.171 146.115 113.592 146.946 115.152 147.384C116.713 147.822 118.359 147.85 119.934 147.468C121.104 149.391 122.924 150.833 125.064 151.533C127.204 152.232 129.524 152.144 131.605 151.283C133.457 150.515 135.018 149.181 136.064 147.47C137.639 147.853 139.286 147.824 140.846 147.386C142.406 146.949 143.828 146.117 144.974 144.971C146.119 143.825 146.951 142.403 147.388 140.843C147.826 139.283 147.854 137.636 147.471 136.061C148.855 135.219 149.998 134.035 150.791 132.622C151.584 131.21 152 129.618 152 127.998C152 126.378 151.584 124.786 150.791 123.374C149.998 121.962 148.855 120.777 147.471 119.935C147.854 118.361 147.824 116.714 147.386 115.155C146.948 113.595 146.116 112.174 144.97 111.029C143.826 109.883 142.405 109.051 140.846 108.613C139.287 108.174 137.641 108.144 136.066 108.526H136.064ZM126.565 136.635L137.514 120.211C138.872 118.18 135.711 116.073 134.355 118.104L124.693 132.606L121.402 129.323C119.682 127.59 116.996 130.273 118.724 132.001L123.932 137.161C124.139 137.3 124.372 137.397 124.617 137.445C124.862 137.494 125.114 137.494 125.358 137.445C125.603 137.396 125.836 137.299 126.043 137.159C126.25 137.02 126.427 136.841 126.565 136.633V136.635Z" fill="black"/>
<defs>
<radialGradient id="paint0_radial_23_73" cx="0" cy="0" r="1" gradientUnits="userSpaceOnUse" gradientTransform="translate(128 178) rotate(90) scale(237.5)">
<stop/>
<stop offset="1" stop-color="#2B2B2B"/>
</radialGradient>
<radialGradient id="paint1_radial_23_73" cx="0" cy="0" r="1" gradientUnits="userSpaceOnUse" gradientTransform="translate(154 151.5) rotate(90) scale(65.5 122.78)">
<stop/>
<stop offset="1" stop-opacity="0"/>
</radialGradient>
</defs>
</svg>
