<svg width="64" height="64" viewBox="0 0 64 64" fill="none" xmlns="http://www.w3.org/2000/svg">
<g clip-path="url(#clip0_1_4)">
<rect width="64" height="64" fill="black"/>
<path d="M29.5422 34.8C29.5422 36.3467 29.0355 37.6133 28.0222 38.6L22.5022 44H18.9822L13.4622 38.6C12.4489 37.6133 11.9422 36.3467 11.9422 34.8V20.8H16.0622V34.64C16.0622 35.3067 16.2355 35.8133 16.5822 36.16L20.7822 40.4L24.9022 36.16C25.2489 35.8133 25.4222 35.3067 25.4222 34.64V20.8H29.5422V34.8ZM51.8 34.8C51.8 36.3467 51.2933 37.6133 50.28 38.6L44.76 44H41.24L35.72 38.6C34.7067 37.6133 34.2 36.3467 34.2 34.8V20.8H38.32V34.64C38.32 35.3067 38.4933 35.8133 38.84 36.16L43.04 40.4L47.16 36.16C47.5067 35.8133 47.68 35.3067 47.68 34.64V20.8H51.8V34.8Z" fill="white"/>
</g>
<defs>
<clipPath id="clip0_1_4">
<rect width="64" height="64" fill="white"/>
</clipPath>
</defs>
</svg>
