<svg width="40" height="23" viewBox="0 0 40 23" fill="none" xmlns="http://www.w3.org/2000/svg">
<g clip-path="url(#clip0_1_4)">
<path d="M17.6422 13.8C17.6422 15.3467 17.1355 16.6133 16.1222 17.6L10.6022 23H7.08219L1.56219 17.6C0.548861 16.6133 0.0421938 15.3467 0.0421938 13.8V-0.200002H4.16219V13.64C4.16219 14.3067 4.33553 14.8133 4.68219 15.16L8.88219 19.4L13.0022 15.16C13.3489 14.8133 13.5222 14.3067 13.5222 13.64V-0.200002H17.6422V13.8ZM39.9 13.8C39.9 15.3467 39.3933 16.6133 38.38 17.6L32.86 23H29.34L23.82 17.6C22.8067 16.6133 22.3 15.3467 22.3 13.8V-0.200002H26.42V13.64C26.42 14.3067 26.5933 14.8133 26.94 15.16L31.14 19.4L35.26 15.16C35.6067 14.8133 35.78 14.3067 35.78 13.64V-0.200002H39.9V13.8Z" fill="white"/>
</g>
<defs>
<clipPath id="clip0_1_4">
<rect width="64" height="64" fill="white" transform="translate(-12 -21)"/>
</clipPath>
</defs>
</svg>
